<mxfile host="app.diagrams.net" agent="Mozilla/5.0 (Windows NT 10.0; Win64; x64) AppleWebKit/537.36 (KHTML, like Gecko) Chrome/134.0.0.0 Safari/537.36 OPR/119.0.0.0" version="27.1.6">
  <diagram name="Page-1" id="SzpuNb2xohlQD5G5no38">
    <mxGraphModel dx="1439" dy="549" grid="1" gridSize="10" guides="1" tooltips="1" connect="1" arrows="1" fold="1" page="1" pageScale="1" pageWidth="827" pageHeight="1169" math="0" shadow="0">
      <root>
        <mxCell id="0" />
        <mxCell id="1" parent="0" />
        <mxCell id="l1qo2t2zxvMt5VMM-JIv-132" style="edgeStyle=orthogonalEdgeStyle;rounded=0;orthogonalLoop=1;jettySize=auto;html=1;entryX=1.008;entryY=0.288;entryDx=0;entryDy=0;entryPerimeter=0;endArrow=none;startFill=1;startArrow=classic;" edge="1" parent="1" source="KJb5kGNstBR1FaahqVbL-12" target="l1qo2t2zxvMt5VMM-JIv-25">
          <mxGeometry relative="1" as="geometry" />
        </mxCell>
        <mxCell id="l1qo2t2zxvMt5VMM-JIv-90" value="" style="rounded=0;whiteSpace=wrap;html=1;fillColor=#E1D5E7;dashed=1;dashPattern=1 2;" vertex="1" parent="1">
          <mxGeometry x="450" y="300" width="110" height="80" as="geometry" />
        </mxCell>
        <mxCell id="l1qo2t2zxvMt5VMM-JIv-91" value="&lt;font style=&quot;font-size: 10px;&quot; face=&quot;Times New Roman&quot;&gt;derivatives/ica/&lt;/font&gt;" style="text;html=1;align=center;verticalAlign=middle;resizable=0;points=[];autosize=1;strokeColor=none;fillColor=none;fontColor=light-dark(#23445d, #ededed);" vertex="1" parent="1">
          <mxGeometry x="465" y="290" width="80" height="30" as="geometry" />
        </mxCell>
        <mxCell id="l1qo2t2zxvMt5VMM-JIv-69" value="" style="rounded=0;whiteSpace=wrap;html=1;fillColor=#CCFFE6;dashed=1;dashPattern=1 2;movable=1;resizable=1;rotatable=1;deletable=1;editable=1;locked=0;connectable=1;" vertex="1" parent="1">
          <mxGeometry x="440" y="80" width="170" height="80" as="geometry" />
        </mxCell>
        <mxCell id="l1qo2t2zxvMt5VMM-JIv-129" style="edgeStyle=orthogonalEdgeStyle;rounded=0;orthogonalLoop=1;jettySize=auto;html=1;exitX=0.75;exitY=0;exitDx=0;exitDy=0;entryX=0.25;entryY=1;entryDx=0;entryDy=0;" edge="1" parent="1" source="l1qo2t2zxvMt5VMM-JIv-55" target="KJb5kGNstBR1FaahqVbL-12">
          <mxGeometry relative="1" as="geometry" />
        </mxCell>
        <mxCell id="l1qo2t2zxvMt5VMM-JIv-55" value="" style="rounded=0;whiteSpace=wrap;html=1;fillColor=#E1D5E7;dashed=1;dashPattern=1 2;" vertex="1" parent="1">
          <mxGeometry x="280" y="300" width="170" height="80" as="geometry" />
        </mxCell>
        <mxCell id="l1qo2t2zxvMt5VMM-JIv-108" value="" style="edgeStyle=orthogonalEdgeStyle;rounded=0;orthogonalLoop=1;jettySize=auto;html=1;" edge="1" parent="1" source="l1qo2t2zxvMt5VMM-JIv-67" target="KJb5kGNstBR1FaahqVbL-12">
          <mxGeometry relative="1" as="geometry">
            <Array as="points">
              <mxPoint x="500" y="150" />
              <mxPoint x="500" y="150" />
            </Array>
          </mxGeometry>
        </mxCell>
        <mxCell id="l1qo2t2zxvMt5VMM-JIv-109" style="edgeStyle=orthogonalEdgeStyle;rounded=0;orthogonalLoop=1;jettySize=auto;html=1;entryX=0.5;entryY=0;entryDx=0;entryDy=0;exitX=0.001;exitY=0.475;exitDx=0;exitDy=0;exitPerimeter=0;" edge="1" parent="1" source="l1qo2t2zxvMt5VMM-JIv-67" target="KJb5kGNstBR1FaahqVbL-11">
          <mxGeometry relative="1" as="geometry">
            <Array as="points">
              <mxPoint x="310" y="118" />
            </Array>
          </mxGeometry>
        </mxCell>
        <mxCell id="l1qo2t2zxvMt5VMM-JIv-67" value="" style="rounded=0;whiteSpace=wrap;html=1;fillColor=#CCFFE6;dashed=1;dashPattern=1 2;movable=1;resizable=1;rotatable=1;deletable=1;editable=1;locked=0;connectable=1;" vertex="1" parent="1">
          <mxGeometry x="370" y="80" width="240" height="80" as="geometry" />
        </mxCell>
        <mxCell id="l1qo2t2zxvMt5VMM-JIv-26" value="" style="rounded=0;whiteSpace=wrap;html=1;fillColor=#E1D5E7;dashed=1;dashPattern=1 2;" vertex="1" parent="1">
          <mxGeometry x="610" y="160" width="100" height="140" as="geometry" />
        </mxCell>
        <mxCell id="l1qo2t2zxvMt5VMM-JIv-25" value="" style="rounded=0;whiteSpace=wrap;html=1;fillColor=#E1D5E7;dashed=1;dashPattern=1 2;fillStyle=auto;" vertex="1" parent="1">
          <mxGeometry x="100" y="160" width="100" height="140" as="geometry" />
        </mxCell>
        <mxCell id="KJb5kGNstBR1FaahqVbL-5" value="&lt;font face=&quot;Times New Roman&quot;&gt;D#1&lt;/font&gt;" style="shape=datastore;whiteSpace=wrap;html=1;fillColor=#bac8d3;strokeColor=#23445d;strokeWidth=2;" parent="1" vertex="1">
          <mxGeometry x="140" y="180" width="40" height="40" as="geometry" />
        </mxCell>
        <mxCell id="KJb5kGNstBR1FaahqVbL-11" value="&lt;font face=&quot;Times New Roman&quot;&gt;Initial Preparatory Steps&lt;/font&gt;" style="rounded=1;whiteSpace=wrap;html=1;fillColor=#f5f5f5;fontColor=#333333;strokeColor=#666666;strokeWidth=0;fontStyle=1" parent="1" vertex="1">
          <mxGeometry x="240" y="220" width="140" height="40" as="geometry" />
        </mxCell>
        <mxCell id="l1qo2t2zxvMt5VMM-JIv-134" style="edgeStyle=orthogonalEdgeStyle;rounded=0;orthogonalLoop=1;jettySize=auto;html=1;entryX=0.19;entryY=0;entryDx=0;entryDy=0;entryPerimeter=0;exitX=0.75;exitY=1;exitDx=0;exitDy=0;shape=flexArrow;startArrow=block;" edge="1" parent="1" source="KJb5kGNstBR1FaahqVbL-12" target="l1qo2t2zxvMt5VMM-JIv-93">
          <mxGeometry relative="1" as="geometry">
            <mxPoint x="560" y="270" as="targetPoint" />
          </mxGeometry>
        </mxCell>
        <mxCell id="KJb5kGNstBR1FaahqVbL-12" value="&lt;font face=&quot;Times New Roman&quot;&gt;Main Preprocessing Pipeline&lt;/font&gt;" style="rounded=1;whiteSpace=wrap;html=1;fillColor=#f5f5f5;fontColor=#333333;strokeColor=#666666;strokeWidth=0;fontStyle=1" parent="1" vertex="1">
          <mxGeometry x="434.6" y="180" width="140" height="40" as="geometry" />
        </mxCell>
        <mxCell id="l1qo2t2zxvMt5VMM-JIv-1" value="&lt;font face=&quot;Times New Roman&quot;&gt;D#2&lt;/font&gt;" style="shape=datastore;whiteSpace=wrap;html=1;fillColor=#bac8d3;strokeColor=#23445d;strokeWidth=2;" vertex="1" parent="1">
          <mxGeometry x="130" y="210" width="40" height="40" as="geometry" />
        </mxCell>
        <mxCell id="l1qo2t2zxvMt5VMM-JIv-2" value="&lt;font face=&quot;Times New Roman&quot;&gt;D#3&lt;/font&gt;" style="shape=datastore;whiteSpace=wrap;html=1;fillColor=#bac8d3;strokeColor=#23445d;strokeWidth=2;" vertex="1" parent="1">
          <mxGeometry x="120" y="240" width="40" height="40" as="geometry" />
        </mxCell>
        <mxCell id="l1qo2t2zxvMt5VMM-JIv-8" value="" style="verticalLabelPosition=bottom;html=1;verticalAlign=top;align=center;strokeColor=#23445d;fillColor=#bac8d3;shape=mxgraph.azure.cloud_services_configuration_file;pointerEvents=1;strokeWidth=1;" vertex="1" parent="1">
          <mxGeometry x="390" y="100" width="30" height="40" as="geometry" />
        </mxCell>
        <mxCell id="l1qo2t2zxvMt5VMM-JIv-10" value="&lt;font style=&quot;font-size: 10px;&quot; face=&quot;Times New Roman&quot;&gt;raw/&lt;/font&gt;" style="text;html=1;align=center;verticalAlign=middle;resizable=0;points=[];autosize=1;strokeColor=none;fillColor=none;fontColor=light-dark(#23445d, #ededed);" vertex="1" parent="1">
          <mxGeometry x="130" y="150" width="40" height="30" as="geometry" />
        </mxCell>
        <mxCell id="l1qo2t2zxvMt5VMM-JIv-11" value="&lt;font face=&quot;Times New Roman&quot; style=&quot;font-size: 10px;&quot;&gt;config&lt;/font&gt;" style="text;html=1;align=center;verticalAlign=middle;resizable=0;points=[];autosize=1;strokeColor=none;fillColor=none;fontColor=light-dark(#23445d, #ededed);" vertex="1" parent="1">
          <mxGeometry x="378.44" y="70" width="50" height="30" as="geometry" />
        </mxCell>
        <mxCell id="l1qo2t2zxvMt5VMM-JIv-17" value="&lt;font face=&quot;Times New Roman&quot;&gt;D#1&lt;/font&gt;" style="shape=datastore;whiteSpace=wrap;html=1;fillColor=#bac8d3;strokeColor=#23445d;strokeWidth=2;" vertex="1" parent="1">
          <mxGeometry x="650" y="180" width="40" height="40" as="geometry" />
        </mxCell>
        <mxCell id="l1qo2t2zxvMt5VMM-JIv-18" value="&lt;font face=&quot;Times New Roman&quot;&gt;D#2&lt;/font&gt;" style="shape=datastore;whiteSpace=wrap;html=1;fillColor=#bac8d3;strokeColor=#23445d;strokeWidth=2;" vertex="1" parent="1">
          <mxGeometry x="640" y="210" width="40" height="40" as="geometry" />
        </mxCell>
        <mxCell id="l1qo2t2zxvMt5VMM-JIv-19" value="&lt;font face=&quot;Times New Roman&quot;&gt;D#3&lt;/font&gt;" style="shape=datastore;whiteSpace=wrap;html=1;fillColor=#bac8d3;strokeColor=#23445d;strokeWidth=2;" vertex="1" parent="1">
          <mxGeometry x="630" y="240" width="40" height="40" as="geometry" />
        </mxCell>
        <mxCell id="l1qo2t2zxvMt5VMM-JIv-20" value="&lt;font style=&quot;font-size: 10px;&quot; face=&quot;Times New Roman&quot;&gt;epochs/analysis_epochs&lt;/font&gt;" style="text;html=1;align=center;verticalAlign=middle;resizable=0;points=[];autosize=1;strokeColor=none;fillColor=none;fontColor=light-dark(#23445d, #ededed);" vertex="1" parent="1">
          <mxGeometry x="600" y="150" width="120" height="30" as="geometry" />
        </mxCell>
        <mxCell id="l1qo2t2zxvMt5VMM-JIv-111" style="edgeStyle=orthogonalEdgeStyle;rounded=0;orthogonalLoop=1;jettySize=auto;html=1;" edge="1" parent="1" source="l1qo2t2zxvMt5VMM-JIv-27">
          <mxGeometry relative="1" as="geometry">
            <mxPoint x="240" y="94" as="targetPoint" />
          </mxGeometry>
        </mxCell>
        <mxCell id="l1qo2t2zxvMt5VMM-JIv-27" value="" style="shape=umlActor;verticalLabelPosition=bottom;verticalAlign=top;html=1;align=center;fontColor=light-dark(#23445d, #ededed);" vertex="1" parent="1">
          <mxGeometry x="147.5" y="68.75" width="25" height="50" as="geometry" />
        </mxCell>
        <mxCell id="l1qo2t2zxvMt5VMM-JIv-40" value="" style="rounded=0;whiteSpace=wrap;html=1;fillColor=#E1D5E7;dashed=1;dashPattern=1 2;" vertex="1" parent="1">
          <mxGeometry x="100" y="300" width="180" height="80" as="geometry" />
        </mxCell>
        <mxCell id="l1qo2t2zxvMt5VMM-JIv-50" value="&lt;font style=&quot;font-size: 10px;&quot; face=&quot;Times New Roman&quot;&gt;epochs/ica_cleaned&lt;/font&gt;" style="text;html=1;align=center;verticalAlign=middle;resizable=0;points=[];autosize=1;strokeColor=none;fillColor=none;fontColor=light-dark(#23445d, #ededed);" vertex="1" parent="1">
          <mxGeometry x="140" y="290" width="100" height="30" as="geometry" />
        </mxCell>
        <mxCell id="l1qo2t2zxvMt5VMM-JIv-54" value="" style="group;strokeWidth=1;" vertex="1" connectable="0" parent="1">
          <mxGeometry x="172.5" y="315" width="35" height="50" as="geometry" />
        </mxCell>
        <mxCell id="l1qo2t2zxvMt5VMM-JIv-53" value="&lt;font style=&quot;font-size: 8px;&quot; face=&quot;Times New Roman&quot;&gt;D#1&lt;/font&gt;" style="shape=datastore;whiteSpace=wrap;html=1;fillColor=#bac8d3;strokeColor=#23445d;strokeWidth=1;" vertex="1" parent="l1qo2t2zxvMt5VMM-JIv-54">
          <mxGeometry x="11.666666666666668" width="23.333333333333336" height="20" as="geometry" />
        </mxCell>
        <mxCell id="l1qo2t2zxvMt5VMM-JIv-52" value="&lt;font style=&quot;font-size: 8px;&quot; face=&quot;Times New Roman&quot;&gt;D#2&lt;/font&gt;" style="shape=datastore;whiteSpace=wrap;html=1;fillColor=#bac8d3;strokeColor=#23445d;strokeWidth=1;" vertex="1" parent="l1qo2t2zxvMt5VMM-JIv-54">
          <mxGeometry x="5.833333333333334" y="15" width="23.333333333333336" height="20" as="geometry" />
        </mxCell>
        <mxCell id="l1qo2t2zxvMt5VMM-JIv-51" value="&lt;font style=&quot;font-size: 8px;&quot; face=&quot;Times New Roman&quot;&gt;D#3&lt;/font&gt;" style="shape=datastore;whiteSpace=wrap;html=1;fillColor=#bac8d3;strokeColor=#23445d;strokeWidth=1;" vertex="1" parent="l1qo2t2zxvMt5VMM-JIv-54">
          <mxGeometry y="30" width="23.333333333333336" height="20" as="geometry" />
        </mxCell>
        <mxCell id="l1qo2t2zxvMt5VMM-JIv-56" value="&lt;font style=&quot;font-size: 10px;&quot; face=&quot;Times New Roman&quot;&gt;derivatives/&lt;/font&gt;" style="text;html=1;align=center;verticalAlign=middle;resizable=0;points=[];autosize=1;strokeColor=none;fillColor=none;fontColor=light-dark(#23445d, #ededed);" vertex="1" parent="1">
          <mxGeometry x="330" y="290" width="70" height="30" as="geometry" />
        </mxCell>
        <mxCell id="l1qo2t2zxvMt5VMM-JIv-66" value="" style="verticalLabelPosition=bottom;html=1;verticalAlign=top;align=center;strokeColor=#23445d;fillColor=#bac8d3;shape=mxgraph.azure.code_file;pointerEvents=1;strokeWidth=1;" vertex="1" parent="1">
          <mxGeometry x="305" y="320" width="30" height="40" as="geometry" />
        </mxCell>
        <mxCell id="l1qo2t2zxvMt5VMM-JIv-68" value="&lt;font face=&quot;Times New Roman&quot;&gt;&lt;span style=&quot;font-size: 10px;&quot;&gt;helpers, file_io, preprocessing_tools&lt;/span&gt;&lt;/font&gt;" style="text;html=1;align=center;verticalAlign=middle;resizable=0;points=[];autosize=1;strokeColor=none;fillColor=none;fontColor=light-dark(#23445d, #ededed);" vertex="1" parent="1">
          <mxGeometry x="440" y="70" width="170" height="30" as="geometry" />
        </mxCell>
        <mxCell id="l1qo2t2zxvMt5VMM-JIv-76" value="" style="sketch=0;aspect=fixed;pointerEvents=1;shadow=0;dashed=0;html=1;strokeColor=#23445d;labelPosition=center;verticalLabelPosition=bottom;verticalAlign=top;align=center;fillColor=#bac8d3;shape=mxgraph.mscae.enterprise.code_file;strokeWidth=1;" vertex="1" parent="1">
          <mxGeometry x="555.8" y="100" width="39.2" height="40" as="geometry" />
        </mxCell>
        <mxCell id="l1qo2t2zxvMt5VMM-JIv-78" value="" style="group" vertex="1" connectable="0" parent="1">
          <mxGeometry x="370" y="55" width="66.88" height="30" as="geometry" />
        </mxCell>
        <mxCell id="l1qo2t2zxvMt5VMM-JIv-71" value="" style="shadow=0;dashed=0;html=1;strokeColor=#0e8088;fillColor=#b0e3e6;labelPosition=center;verticalLabelPosition=bottom;verticalAlign=top;align=center;outlineConnect=0;shape=mxgraph.veeam.local_disk;strokeWidth=1;" vertex="1" parent="l1qo2t2zxvMt5VMM-JIv-78">
          <mxGeometry width="23.75" height="20" as="geometry" />
        </mxCell>
        <mxCell id="l1qo2t2zxvMt5VMM-JIv-72" value="&lt;font style=&quot;font-size: 10px; color: light-dark(rgb(35, 68, 93), rgb(237, 237, 237));&quot; face=&quot;Times New Roman&quot;&gt;../utils/&lt;/font&gt;" style="text;html=1;align=left;verticalAlign=middle;resizable=0;points=[];autosize=1;strokeColor=none;fillColor=none;fontStyle=0" vertex="1" parent="l1qo2t2zxvMt5VMM-JIv-78">
          <mxGeometry x="16.879999999999995" width="50" height="30" as="geometry" />
        </mxCell>
        <mxCell id="l1qo2t2zxvMt5VMM-JIv-88" value="" style="verticalLabelPosition=bottom;html=1;verticalAlign=top;align=center;strokeColor=#23445d;fillColor=#bac8d3;shape=mxgraph.azure.code_file;pointerEvents=1;strokeWidth=1;" vertex="1" parent="1">
          <mxGeometry x="350" y="320" width="30" height="40" as="geometry" />
        </mxCell>
        <mxCell id="l1qo2t2zxvMt5VMM-JIv-89" value="" style="verticalLabelPosition=bottom;html=1;verticalAlign=top;align=center;strokeColor=#23445d;fillColor=#bac8d3;shape=mxgraph.azure.code_file;pointerEvents=1;strokeWidth=1;" vertex="1" parent="1">
          <mxGeometry x="394" y="320" width="30" height="40" as="geometry" />
        </mxCell>
        <mxCell id="l1qo2t2zxvMt5VMM-JIv-93" value="" style="rounded=0;whiteSpace=wrap;html=1;fillColor=#E1D5E7;dashed=1;dashPattern=1 2;" vertex="1" parent="1">
          <mxGeometry x="560" y="300" width="150" height="80" as="geometry" />
        </mxCell>
        <mxCell id="l1qo2t2zxvMt5VMM-JIv-94" value="&lt;font style=&quot;font-size: 10px;&quot; face=&quot;Times New Roman&quot;&gt;derivatives/new_events/&lt;/font&gt;" style="text;html=1;align=center;verticalAlign=middle;resizable=0;points=[];autosize=1;strokeColor=none;fillColor=none;fontColor=light-dark(#23445d, #ededed);" vertex="1" parent="1">
          <mxGeometry x="575" y="290" width="120" height="30" as="geometry" />
        </mxCell>
        <mxCell id="l1qo2t2zxvMt5VMM-JIv-95" value="" style="verticalLabelPosition=bottom;html=1;verticalAlign=top;align=center;strokeColor=#23445d;fillColor=#bac8d3;shape=mxgraph.azure.cloud_services_configuration_file;pointerEvents=1;strokeWidth=1;" vertex="1" parent="1">
          <mxGeometry x="489.6" y="320" width="30" height="40" as="geometry" />
        </mxCell>
        <mxCell id="l1qo2t2zxvMt5VMM-JIv-96" value="" style="verticalLabelPosition=bottom;html=1;verticalAlign=top;align=center;strokeColor=#23445d;fillColor=#bac8d3;shape=mxgraph.azure.cloud_services_configuration_file;pointerEvents=1;strokeWidth=1;" vertex="1" parent="1">
          <mxGeometry x="620" y="320" width="30" height="40" as="geometry" />
        </mxCell>
        <mxCell id="l1qo2t2zxvMt5VMM-JIv-97" value="" style="sketch=0;aspect=fixed;pointerEvents=1;shadow=0;dashed=0;html=1;strokeColor=#23445d;labelPosition=center;verticalLabelPosition=bottom;verticalAlign=top;align=center;fillColor=#bac8d3;shape=mxgraph.mscae.enterprise.code_file;strokeWidth=1;" vertex="1" parent="1">
          <mxGeometry x="505.4" y="100" width="39.2" height="40" as="geometry" />
        </mxCell>
        <mxCell id="l1qo2t2zxvMt5VMM-JIv-98" value="" style="sketch=0;aspect=fixed;pointerEvents=1;shadow=0;dashed=0;html=1;strokeColor=#23445d;labelPosition=center;verticalLabelPosition=bottom;verticalAlign=top;align=center;fillColor=#bac8d3;shape=mxgraph.mscae.enterprise.code_file;strokeWidth=1;" vertex="1" parent="1">
          <mxGeometry x="450.79999999999995" y="100" width="39.2" height="40" as="geometry" />
        </mxCell>
        <mxCell id="l1qo2t2zxvMt5VMM-JIv-104" value="&lt;font face=&quot;Times New Roman&quot;&gt;&lt;span style=&quot;font-size: 10px;&quot;&gt;bad channels, ica components to exclude&lt;/span&gt;&lt;/font&gt;" style="text;html=1;align=center;verticalAlign=middle;resizable=0;points=[];autosize=1;strokeColor=none;fillColor=none;fontColor=light-dark(#23445d, #ededed);" vertex="1" parent="1">
          <mxGeometry x="270" y="350" width="190" height="30" as="geometry" />
        </mxCell>
        <mxCell id="l1qo2t2zxvMt5VMM-JIv-106" value="&lt;font face=&quot;Times New Roman&quot;&gt;&lt;span style=&quot;font-size: 10px;&quot;&gt;ICA models&lt;/span&gt;&lt;/font&gt;" style="text;html=1;align=center;verticalAlign=middle;resizable=0;points=[];autosize=1;strokeColor=none;fillColor=none;fontColor=light-dark(#23445d, #ededed);" vertex="1" parent="1">
          <mxGeometry x="470" y="350" width="70" height="30" as="geometry" />
        </mxCell>
        <mxCell id="l1qo2t2zxvMt5VMM-JIv-110" value="" style="verticalLabelPosition=bottom;html=1;verticalAlign=top;align=center;strokeColor=#23445d;fillColor=#bac8d3;shape=mxgraph.azure.computer;pointerEvents=1;" vertex="1" parent="1">
          <mxGeometry x="250" y="77.5" width="45" height="37.5" as="geometry" />
        </mxCell>
        <mxCell id="l1qo2t2zxvMt5VMM-JIv-48" value="" style="shadow=0;dashed=0;html=1;strokeColor=#56517e;fillColor=#d0cee2;labelPosition=center;verticalLabelPosition=bottom;verticalAlign=top;align=center;outlineConnect=0;shape=mxgraph.veeam.local_disk;strokeWidth=1;" vertex="1" parent="1">
          <mxGeometry x="100" y="130" width="23.75" height="20" as="geometry" />
        </mxCell>
        <mxCell id="l1qo2t2zxvMt5VMM-JIv-49" value="&lt;font face=&quot;Times New Roman&quot; style=&quot;font-size: 10px; color: light-dark(rgb(35, 68, 93), rgb(237, 237, 237));&quot;&gt;../data/&amp;lt;&lt;/font&gt;&lt;span style=&quot;color: rgb(35, 68, 93); font-family: &amp;quot;Times New Roman&amp;quot;; font-size: 10px;&quot;&gt;dataset name&amp;gt;/&lt;/span&gt;" style="text;html=1;align=center;verticalAlign=middle;resizable=0;points=[];autosize=1;strokeColor=none;fillColor=none;fontStyle=0" vertex="1" parent="1">
          <mxGeometry x="105.75" y="130" width="120" height="30" as="geometry" />
        </mxCell>
        <mxCell id="l1qo2t2zxvMt5VMM-JIv-113" value="&lt;font face=&quot;Times New Roman&quot;&gt;&lt;span style=&quot;font-size: 10px;&quot;&gt;Manual interaction required&lt;/span&gt;&lt;/font&gt;" style="text;html=1;align=center;verticalAlign=middle;resizable=0;points=[];autosize=1;strokeColor=none;fillColor=none;fontColor=light-dark(#23445d, #ededed);" vertex="1" parent="1">
          <mxGeometry x="155" y="38.75" width="140" height="30" as="geometry" />
        </mxCell>
        <mxCell id="l1qo2t2zxvMt5VMM-JIv-124" style="edgeStyle=orthogonalEdgeStyle;rounded=0;orthogonalLoop=1;jettySize=auto;html=1;entryX=0.175;entryY=0;entryDx=0;entryDy=0;entryPerimeter=0;curved=0;shape=flexArrow;endSize=2;startSize=2;targetPerimeterSpacing=0;sourcePerimeterSpacing=0;strokeColor=default;strokeWidth=1;startArrow=block;exitX=0.5;exitY=0.979;exitDx=0;exitDy=0;exitPerimeter=0;" edge="1" parent="1" source="KJb5kGNstBR1FaahqVbL-11" target="l1qo2t2zxvMt5VMM-JIv-55">
          <mxGeometry relative="1" as="geometry" />
        </mxCell>
        <mxCell id="l1qo2t2zxvMt5VMM-JIv-125" style="edgeStyle=orthogonalEdgeStyle;rounded=0;orthogonalLoop=1;jettySize=auto;html=1;entryX=0.175;entryY=0;entryDx=0;entryDy=0;entryPerimeter=0;curved=0;shape=flexArrow;endSize=2;startSize=2;targetPerimeterSpacing=0;sourcePerimeterSpacing=0;strokeColor=default;strokeWidth=1;startArrow=block;exitX=0.143;exitY=0.981;exitDx=0;exitDy=0;exitPerimeter=0;" edge="1" parent="1" source="KJb5kGNstBR1FaahqVbL-11">
          <mxGeometry relative="1" as="geometry">
            <mxPoint x="260.25" y="270" as="sourcePoint" />
            <mxPoint x="260.25" y="300" as="targetPoint" />
          </mxGeometry>
        </mxCell>
        <mxCell id="l1qo2t2zxvMt5VMM-JIv-126" style="edgeStyle=orthogonalEdgeStyle;rounded=0;orthogonalLoop=1;jettySize=auto;html=1;curved=0;shape=flexArrow;endSize=2;startSize=2;targetPerimeterSpacing=0;sourcePerimeterSpacing=0;strokeColor=default;strokeWidth=1;startArrow=block;exitX=0.786;exitY=0.979;exitDx=0;exitDy=0;exitPerimeter=0;entryX=0.25;entryY=0;entryDx=0;entryDy=0;fillColor=default;" edge="1" parent="1" source="KJb5kGNstBR1FaahqVbL-11" target="l1qo2t2zxvMt5VMM-JIv-90">
          <mxGeometry relative="1" as="geometry">
            <mxPoint x="350.25" y="270" as="sourcePoint" />
            <mxPoint x="560" y="280" as="targetPoint" />
            <Array as="points">
              <mxPoint x="350" y="280" />
              <mxPoint x="477" y="280" />
            </Array>
          </mxGeometry>
        </mxCell>
        <mxCell id="l1qo2t2zxvMt5VMM-JIv-127" style="edgeStyle=orthogonalEdgeStyle;rounded=0;orthogonalLoop=1;jettySize=auto;html=1;entryX=0.231;entryY=0.014;entryDx=0;entryDy=0;entryPerimeter=0;curved=0;shape=flexArrow;endSize=2;startSize=2;targetPerimeterSpacing=0;sourcePerimeterSpacing=0;strokeColor=default;strokeWidth=1;startArrow=block;exitX=0.5;exitY=1;exitDx=0;exitDy=0;exitPerimeter=0;fillColor=default;" edge="1" parent="1" source="l1qo2t2zxvMt5VMM-JIv-110" target="KJb5kGNstBR1FaahqVbL-11">
          <mxGeometry relative="1" as="geometry">
            <mxPoint x="269.69" y="180" as="sourcePoint" />
            <mxPoint x="269.94" y="219" as="targetPoint" />
          </mxGeometry>
        </mxCell>
        <mxCell id="l1qo2t2zxvMt5VMM-JIv-128" style="edgeStyle=orthogonalEdgeStyle;rounded=0;orthogonalLoop=1;jettySize=auto;html=1;entryX=1;entryY=0.571;entryDx=0;entryDy=0;entryPerimeter=0;startArrow=classic;startFill=1;endArrow=none;" edge="1" parent="1" source="KJb5kGNstBR1FaahqVbL-11" target="l1qo2t2zxvMt5VMM-JIv-25">
          <mxGeometry relative="1" as="geometry" />
        </mxCell>
        <mxCell id="l1qo2t2zxvMt5VMM-JIv-131" style="edgeStyle=orthogonalEdgeStyle;rounded=0;orthogonalLoop=1;jettySize=auto;html=1;exitX=0.5;exitY=0;exitDx=0;exitDy=0;entryX=0.5;entryY=1;entryDx=0;entryDy=0;" edge="1" parent="1" source="l1qo2t2zxvMt5VMM-JIv-90" target="KJb5kGNstBR1FaahqVbL-12">
          <mxGeometry relative="1" as="geometry" />
        </mxCell>
        <mxCell id="l1qo2t2zxvMt5VMM-JIv-133" style="edgeStyle=orthogonalEdgeStyle;rounded=0;orthogonalLoop=1;jettySize=auto;html=1;entryX=-0.011;entryY=0.288;entryDx=0;entryDy=0;entryPerimeter=0;" edge="1" parent="1" source="KJb5kGNstBR1FaahqVbL-12" target="l1qo2t2zxvMt5VMM-JIv-26">
          <mxGeometry relative="1" as="geometry" />
        </mxCell>
      </root>
    </mxGraphModel>
  </diagram>
</mxfile>
